Coordinates
version=1
nRows=25
nColumns=34
inDegrees=no

Units are S.I. units (second, meters, Newtons, ...)
If the header above contains a line with 'inDegrees', this indicates whether rotational values are in degrees (yes) or radians (no).

endheader
time	pelvis_tilt	pelvis_list	pelvis_rotation	pelvis_tx	pelvis_ty	pelvis_tz	hip_flexion_r	hip_adduction_r	hip_rotation_r	knee_angle_r	ankle_angle_r	subtalar_angle_r	mtp_angle_r	hip_flexion_l	hip_adduction_l	hip_rotation_l	knee_angle_l	ankle_angle_l	subtalar_angle_l	mtp_angle_l	lumbar_extension	lumbar_bending	lumbar_rotation	arm_flex_r	arm_add_r	arm_rot_r	elbow_flex_r	pro_sup_r	arm_flex_l	arm_add_l	arm_rot_l	elbow_flex_l	pro_sup_l
0.87	0.242546	0.101218	0.00926696	0.925967	1.08108	-0.211151	0.226964	-0.177028	-0.0577014	1.00869	0.052268	-0.207723	-0.0198694	-0.20749	0.150898	-0.211856	0.0814469	0.17215	0.311548	-0.0332228	-0.497732	-0.110227	-0.00735363	-0.0432904	-0.134274	-0.279487	0.643073	2.01705	-0.0535446	-0.125966	-0.179305	0.652002	1.78536
0.88	0.243372	0.0979656	0.0171629	0.938508	1.08173	-0.21217	0.234157	-0.172377	-0.0653172	0.95867	0.0617952	-0.210241	-0.0199416	-0.227234	0.147218	-0.195493	0.0728144	0.177814	0.307102	-0.0331803	-0.501096	-0.101968	-0.0155827	-0.0503745	-0.13117	-0.280363	0.613149	2.01587	-0.0319638	-0.134238	-0.179301	0.677501	1.77991
0.89	0.244376	0.0953379	0.0247609	0.951092	1.08213	-0.213133	0.238854	-0.168745	-0.0750964	0.904375	0.0705289	-0.210642	-0.0200137	-0.247108	0.143967	-0.17907	0.0645513	0.183704	0.301959	-0.0331377	-0.504506	-0.0945313	-0.0233146	-0.0581154	-0.128166	-0.281735	0.585356	2.0148	-0.0105907	-0.142806	-0.178606	0.703438	1.77423
0.9	0.245443	0.0932858	0.0319311	0.963738	1.08227	-0.214022	0.241209	-0.165911	-0.0872209	0.84618	0.0784214	-0.207716	-0.0200858	-0.266914	0.141095	-0.163018	0.0568806	0.190095	0.296547	-0.0330952	-0.507792	-0.0879399	-0.0304357	-0.0666655	-0.125164	-0.283782	0.560144	2.01418	0.0104943	-0.151601	-0.177308	0.729637	1.76876
0.91	0.246435	0.0917351	0.0385694	0.976465	1.08214	-0.21482	0.241431	-0.1636	-0.101781	0.78455	0.0854651	-0.200006	-0.0201579	-0.28641	0.13852	-0.147852	0.0500579	0.197298	0.291406	-0.0330526	-0.510763	-0.0821958	-0.0368301	-0.0761781	-0.122063	-0.286693	0.537932	2.01431	0.031195	-0.160546	-0.17555	0.755977	1.76383
0.92	0.247213	0.0905968	0.0445948	0.989292	1.08174	-0.215507	0.239771	-0.161497	-0.118714	0.720059	0.0917081	-0.18602	-0.02023	-0.305341	0.136147	-0.134132	0.0443318	0.205622	0.287142	-0.03301	-0.513235	-0.0772821	-0.0423897	-0.0867766	-0.118775	-0.290621	0.519051	2.0154	0.051403	-0.169567	-0.173508	0.782399	1.75969
0.93	0.247656	0.0897777	0.0499488	1.00224	1.08106	-0.216069	0.236503	-0.159275	-0.137748	0.653409	0.0972526	-0.164489	-0.020302	-0.32348	0.133873	-0.122427	0.0399182	0.215333	0.284385	-0.0329674	-0.515049	-0.0731668	-0.0470305	-0.0985219	-0.115234	-0.295638	0.50368	2.01751	0.0709991	-0.178601	-0.171358	0.808901	1.75648
0.94	0.247679	0.0891903	0.0545967	1.01532	1.08011	-0.216494	0.231917	-0.156618	-0.158373	0.585449	0.102246	-0.134636	-0.0203741	-0.340638	0.131589	-0.113286	0.0369913	0.226626	0.28375	-0.0329248	-0.516089	-0.0698006	-0.0507111	-0.111383	-0.111409	-0.301693	0.491794	2.02056	0.0898546	-0.187607	-0.169266	0.835528	1.75427
0.95	0.247257	0.0887539	0.0585318	1.02855	1.0789	-0.216772	0.226309	-0.153247	-0.179838	0.517184	0.106868	-0.0964003	-0.0204462	-0.356679	0.129181	-0.107215	0.035685	0.239596	0.285809	-0.0328822	-0.516287	-0.0671121	-0.053449	-0.125223	-0.107311	-0.308597	0.483144	2.02435	0.107834	-0.19656	-0.167376	0.862346	1.75305
0.96	0.246418	0.0883779	0.0617804	1.04194	1.07747	-0.2169	0.219964	-0.148946	-0.201186	0.449771	0.11132	-0.0505788	-0.0205182	-0.371517	0.126529	-0.104646	0.0361048	0.254226	0.291056	-0.0328396	-0.515641	-0.0650054	-0.0553314	-0.139791	-0.102998	-0.316034	0.477268	2.02854	0.124796	-0.205452	-0.165814	0.889421	1.75281
0.97	0.245238	0.087953	0.0644045	1.05549	1.07586	-0.216877	0.213139	-0.143579	-0.221328	0.384492	0.115799	0.00116761	-0.0205902	-0.385127	0.123496	-0.105916	0.0383425	0.270376	0.299884	-0.032797	-0.514213	-0.0633528	-0.0565104	-0.154749	-0.0985729	-0.323604	0.473548	2.03274	0.140603	-0.214282	-0.164688	0.916794	1.75352
0.98	0.243829	0.087356	0.0665006	1.06922	1.0741	-0.216707	0.206043	-0.137087	-0.239166	0.322704	0.120476	0.0564421	-0.0206622	-0.397534	0.119919	-0.111241	0.0424838	0.287792	0.312556	-0.0327544	-0.512133	-0.0619839	-0.0571852	-0.169698	-0.0941758	-0.330876	0.471286	2.03654	0.155121	-0.22304	-0.164093	0.944459	1.75513
0.99	0.242342	0.0864491	0.0681938	1.08311	1.07226	-0.216399	0.198826	-0.129482	-0.253732	0.265752	0.125438	0.11237	-0.0207342	-0.408818	0.115605	-0.120685	0.0486084	0.30611	0.329174	-0.0327118	-0.509581	-0.0606832	-0.0575747	-0.184223	-0.0899674	-0.337462	0.469801	2.03958	0.168229	-0.231697	-0.16411	0.97236	1.7576
1	0.240951	0.085081	0.0696268	1.09716	1.07039	-0.215966	0.191567	-0.120828	-0.264337	0.21487	0.130635	0.165944	-0.0208062	-0.419097	0.110332	-0.134138	0.0567814	0.324874	0.349646	-0.0326691	-0.506764	-0.059197	-0.057884	-0.197941	-0.0861103	-0.343067	0.468509	2.04162	0.179817	-0.240194	-0.164803	1.00038	1.76084
1.01	0.239831	0.0830942	0.0709448	1.11137	1.06856	-0.215422	0.184275	-0.111216	-0.270678	0.171064	0.135815	0.214393	-0.0208782	-0.428516	0.103864	-0.151289	0.0670385	0.343559	0.373639	-0.0326265	-0.503889	-0.0572509	-0.0582727	-0.210543	-0.0827483	-0.347526	0.466987	2.04254	0.189791	-0.248441	-0.166222	1.02837	1.76477
1.02	0.239133	0.0803381	0.0722797	1.12573	1.06682	-0.214787	0.176904	-0.100743	-0.272885	0.13501	0.140481	0.255503	-0.0209501	-0.437231	0.0959744	-0.171605	0.0793715	0.361587	0.400553	-0.0325839	-0.501128	-0.0545779	-0.0588307	-0.221815	-0.0799867	-0.350816	0.465002	2.04238	0.198073	-0.256321	-0.168389	1.05612	1.76928
1.03	0.238961	0.0766875	0.0737366	1.14025	1.06521	-0.214083	0.169375	-0.0894974	-0.271471	0.106973	0.1439	0.287816	-0.0210221	-0.445384	0.0864755	-0.194335	0.0937212	0.378358	0.429493	-0.0325412	-0.498584	-0.0509503	-0.0595664	-0.23166	-0.0778782	-0.353042	0.462503	2.04133	0.204594	-0.263698	-0.171295	1.08341	1.77422
1.04	0.239357	0.0720628	0.0753856	1.15493	1.06377	-0.21333	0.161589	-0.0775469	-0.267216	0.0867564	0.14516	0.310701	-0.021094	-0.453077	0.0752491	-0.218526	0.109987	0.393268	0.45929	-0.0324986	-0.496276	-0.0462074	-0.0604088	-0.240089	-0.076417	-0.354409	0.45959	2.03968	0.209307	-0.270431	-0.174888	1.11002	1.77946
1.05	0.240277	0.0664482	0.0772594	1.16979	1.0625	-0.212547	0.153441	-0.064944	-0.261003	0.0737088	0.143301	0.324286	-0.021166	-0.460349	0.0622623	-0.243095	0.12806	0.405738	0.488572	-0.032456	-0.494138	-0.0402737	-0.0612237	-0.247203	-0.0755416	-0.355179	0.456462	2.03778	0.21218	-0.276393	-0.179075	1.1357	1.78484
1.06	0.241658	0.059835	0.079368	1.18485	1.06143	-0.211736	0.144839	-0.0517519	-0.253652	0.0667758	0.137494	0.329297	-0.0212379	-0.467141	0.0475852	-0.26692	0.147868	0.415234	0.51587	-0.0324133	-0.492026	-0.0331876	-0.0618426	-0.253167	-0.0751451	-0.355631	0.453365	2.03601	0.213214	-0.281476	-0.183711	1.16022	1.79026
1.07	0.243367	0.0523078	0.081694	1.20011	1.06059	-0.210903	0.135695	-0.0380288	-0.245811	0.0646298	0.127227	0.326861	-0.0213099	-0.473295	0.0313567	-0.288943	0.169438	0.421278	0.539744	-0.0323707	-0.489762	-0.0250589	-0.0620802	-0.258171	-0.0750943	-0.356016	0.450536	2.03467	0.212443	-0.285606	-0.18861	1.18337	1.79559
1.08	0.245255	0.0439941	0.0842052	1.21559	1.05995	-0.210049	0.125937	-0.0238462	-0.237904	0.0658382	0.112476	0.318322	-0.0213818	-0.478545	0.0137626	-0.30827	0.192937	0.423437	0.558907	-0.032328	-0.487169	-0.0160586	-0.0617589	-0.262397	-0.0752508	-0.356533	0.448173	2.03399	0.209943	-0.28874	-0.193557	1.20495	1.80076
1.09	0.247179	0.0350456	0.0868599	1.23128	1.05952	-0.209173	0.11554	-0.00928987	-0.230157	0.0690589	0.0938085	0.305095	-0.0214537	-0.482511	-0.00500233	-0.324249	0.218706	0.42131	0.572327	-0.0322853	-0.484108	-0.00638806	-0.0607227	-0.265989	-0.0754915	-0.357302	0.446404	2.03405	0.205837	-0.29087	-0.198316	1.22479	1.80568
1.1	0.249015	0.0256168	0.0896094	1.24713	1.0593	-0.208266	0.104537	0.00554383	-0.222658	0.0732213	0.0723849	0.288572	-0.0215256	-0.484721	-0.0247687	-0.336503	0.247251	0.414497	0.579283	-0.0322427	-0.480499	0.00375321	-0.0588438	-0.269034	-0.0757268	-0.358353	0.445287	2.03481	0.200297	-0.292012	-0.202657	1.24274	1.8103
1.11	0.250659	0.0158418	0.0924002	1.26313	1.05927	-0.20732	0.0930517	0.0205546	-0.215448	0.0776533	0.0498607	0.270069	-0.0215975	-0.484625	-0.0454153	-0.344921	0.279203	0.402576	0.579382	-0.0322	-0.47634	0.0141918	-0.0560252	-0.27155	-0.0759121	-0.35963	0.444819	2.03609	0.193533	-0.292202	-0.206372	1.2587	1.81456
